<svg xmlns="http://www.w3.org/2000/svg" viewBox="0 0 64 64">
  <defs>
    <linearGradient id="bg" x1="0%" y1="0%" x2="100%" y2="100%">
      <stop offset="0%" style="stop-color:#1e3a8a"/>
      <stop offset="100%" style="stop-color:#1e40af"/>
    </linearGradient>
  </defs>
  <rect width="64" height="64" rx="14" fill="url(#bg)"/>
  <rect x="6" y="6" width="16" height="16" rx="2" fill="none" stroke="white" stroke-width="2.5"/>
  <rect x="10" y="10" width="8" height="8" rx="1" fill="white"/>
  <rect x="42" y="6" width="16" height="16" rx="2" fill="none" stroke="white" stroke-width="2.5"/>
  <rect x="46" y="10" width="8" height="8" rx="1" fill="white"/>
  <rect x="6" y="42" width="16" height="16" rx="2" fill="none" stroke="white" stroke-width="2.5"/>
  <rect x="10" y="46" width="8" height="8" rx="1" fill="white"/>
  <rect x="25" y="7" width="3" height="3" fill="white" opacity="0.9"/>
  <rect x="31" y="7" width="3" height="3" fill="white" opacity="0.7"/>
  <rect x="37" y="7" width="3" height="3" fill="white" opacity="0.9"/>
  <rect x="7" y="25" width="3" height="3" fill="white" opacity="0.9"/>
  <rect x="7" y="31" width="3" height="3" fill="white" opacity="0.7"/>
  <rect x="7" y="37" width="3" height="3" fill="white" opacity="0.9"/>
  <rect x="25" y="13" width="3" height="3" fill="white" opacity="0.6"/>
  <rect x="31" y="13" width="3" height="3" fill="white" opacity="0.8"/>
  <rect x="25" y="19" width="3" height="3" fill="white" opacity="0.8"/>
  <rect x="31" y="19" width="3" height="3" fill="white" opacity="0.5"/>
  <rect x="37" y="19" width="3" height="3" fill="white" opacity="0.7"/>
  <rect x="13" y="25" width="3" height="3" fill="white" opacity="0.6"/>
  <rect x="19" y="25" width="3" height="3" fill="white" opacity="0.8"/>
  <rect x="19" y="31" width="3" height="3" fill="white" opacity="0.5"/>
  <rect x="13" y="37" width="3" height="3" fill="white" opacity="0.7"/>
  <rect x="44" y="25" width="3" height="3" fill="white" opacity="0.5"/>
  <rect x="50" y="25" width="3" height="3" fill="white" opacity="0.7"/>
  <rect x="44" y="31" width="3" height="3" fill="white" opacity="0.7"/>
  <rect x="50" y="31" width="3" height="3" fill="white" opacity="0.5"/>
  <rect x="56" y="31" width="3" height="3" fill="white" opacity="0.6"/>
  <rect x="44" y="37" width="3" height="3" fill="white" opacity="0.5"/>
  <rect x="50" y="37" width="3" height="3" fill="white" opacity="0.8"/>
  <rect x="25" y="44" width="3" height="3" fill="white" opacity="0.7"/>
  <rect x="31" y="44" width="3" height="3" fill="white" opacity="0.5"/>
  <rect x="25" y="50" width="3" height="3" fill="white" opacity="0.5"/>
  <rect x="31" y="50" width="3" height="3" fill="white" opacity="0.7"/>
  <rect x="37" y="50" width="3" height="3" fill="white" opacity="0.6"/>
  <rect x="25" y="56" width="3" height="3" fill="white" opacity="0.6"/>
  <path d="M38 38l-4.5 2.7 1.2-5.1-4-3.5 5.2-0.4L38 27l2.1 4.7 5.2 0.4-4 3.5 1.2 5.1z" fill="#fbbf24"/>
  <path d="M52 48l-2.2 1.3 0.6-2.5-1.9-1.7 2.5-0.2 1-2.2 1 2.2 2.5 0.2-1.9 1.7 0.6 2.5z" fill="#fbbf24" opacity="0.7"/>
</svg>
